<svg xmlns="http://www.w3.org/2000/svg" width="163.45382690429688" height="174.92019653320312" viewBox="24.318199157714844 16.902992248535156 163.45382690429688 174.92019653320312"><title>Neo4j Graph Visualization</title><desc>Created using Neo4j (http://www.neo4j.com/)</desc><g class="layer relationships"><g class="relationship" transform="translate(134.09017338105306 162.82318472970792) rotate(283.42441829717217)"><path class="outline" fill="#A5ABB6" stroke="none" d="M 24.018736134675446,-6.953439040707552 L 24.277555179777966,-5.987513214418485 A 104.32909750843066 104.32909750843066 0 0 1 33.00205050172545,-7.9288746748003405 L 32.826856212614345,-8.913408554899377 A 105.32909750843066 105.32909750843066 0 0 0 24.018736134675446,-6.953439040707552 Z M 66.40128278483259,-9.451354534197037 L 66.25771969951987,-8.46171336663403 A 104.32909750843066 104.32909750843066 0 0 1 75.03993159196862,-6.800852981571161 L 74.35670841877676,-3.8796877867193453 L 81.96985424215484,-5.693526443265467 L 75.9508958228911,-10.695739908040249 L 75.26767264969924,-7.774574713188434 A 105.32909750843066 105.32909750843066 0 0 0 66.40128278483259,-9.451354534197037"/><text text-anchor="middle" pointer-events="none" font-size="8px" fill="#000000" x="49.60050475809213" y="-7.028987720307228" font-family="sans-serif">CHEAP</text></g><g class="relationship" transform="translate(158.7720371755066 59.415071985076935) rotate(187.3016747134826)"><path class="outline" fill="#A5ABB6" stroke="none" d="M 25 0.5 L 32.87674170369233 0.5 L 32.87674170369233 -0.5 L 25 -0.5 Z M 66.43924170369233 0.5 L 74.31598340738466 0.5 L 74.31598340738466 3.5 L 81.31598340738466 0 L 74.31598340738466 -3.5 L 74.31598340738466 -0.5 L 66.43924170369233 -0.5 Z"/><text text-anchor="middle" pointer-events="none" font-size="8px" fill="#000000" x="49.65799170369233" y="3" transform="rotate(180 49.65799170369233 0)" font-family="sans-serif">CHEAP</text></g><g class="relationship" transform="translate(158.7720371755066 59.415071985076935) rotate(463.42441829717217)"><path class="outline" fill="#A5ABB6" stroke="none" d="M 24.018736134675446,-6.953439040707552 L 24.277555179777966,-5.987513214418485 A 104.32909750843066 104.32909750843066 0 0 1 33.00205050172545,-7.9288746748003405 L 32.826856212614345,-8.913408554899377 A 105.32909750843066 105.32909750843066 0 0 0 24.018736134675446,-6.953439040707552 Z M 66.40128278483259,-9.451354534197037 L 66.25771969951987,-8.46171336663403 A 104.32909750843066 104.32909750843066 0 0 1 75.03993159196862,-6.800852981571161 L 74.35670841877676,-3.8796877867193453 L 81.96985424215484,-5.693526443265467 L 75.9508958228911,-10.695739908040249 L 75.26767264969924,-7.774574713188434 A 105.32909750843066 105.32909750843066 0 0 0 66.40128278483259,-9.451354534197037"/><text text-anchor="middle" pointer-events="none" font-size="8px" fill="#000000" x="49.60050475809213" y="-7.028987720307228" transform="rotate(180 49.60050475809213 -10.028987720307228)" font-family="sans-serif">CHEAP</text></g></g><g class="layer nodes"><g class="node" transform="translate(134.09017338105306,162.82318472970792)"><circle class="outline" cx="0" cy="0" r="25" fill="#ECB5C9" stroke="#da7298" stroke-width="2px"/><text text-anchor="middle" pointer-events="none" font-family="sans-serif" dy="1.5625" font-size="25" fill="#2A2C34"/><text text-anchor="middle" pointer-events="none" x="0" y="5" font-size="10px" fill="#2A2C34" font-family="sans-serif"> MSN</text></g><g class="node" transform="translate(158.7720371755066,59.415071985076935)"><circle class="outline" cx="0" cy="0" r="25" fill="#ECB5C9" stroke="#da7298" stroke-width="2px"/><text text-anchor="middle" pointer-events="none" font-family="sans-serif" dy="1.5625" font-size="25" fill="#2A2C34"/><text text-anchor="middle" pointer-events="none" x="0" y="5" font-size="10px" fill="#2A2C34" font-family="sans-serif"> ORD</text></g><g class="node" transform="translate(53.31819897837221,45.90299082147041)"><circle class="outline" cx="0" cy="0" r="25" fill="#ECB5C9" stroke="#da7298" stroke-width="2px"/><text text-anchor="middle" pointer-events="none" font-family="sans-serif" dy="1.5625" font-size="25" fill="#2A2C34"/><text text-anchor="middle" pointer-events="none" x="0" y="5" font-size="10px" fill="#2A2C34" font-family="sans-serif"> GRR</text></g></g></svg>